<?xml version="1.0" encoding="UTF-8" standalone="no"?>
<!-- Created with Inkscape (http://www.inkscape.org/) -->

<svg
   xmlns:dc="http://purl.org/dc/elements/1.1/"
   xmlns:cc="http://creativecommons.org/ns#"
   xmlns:rdf="http://www.w3.org/1999/02/22-rdf-syntax-ns#"
   xmlns:svg="http://www.w3.org/2000/svg"
   xmlns="http://www.w3.org/2000/svg"
   xmlns:sodipodi="http://sodipodi.sourceforge.net/DTD/sodipodi-0.dtd"
   xmlns:inkscape="http://www.inkscape.org/namespaces/inkscape"
   width="380.99738"
   height="890.07745"
   id="svg2"
   version="1.1"
   inkscape:version="0.47 r22583"
   sodipodi:docname="mikrogesten_beispiel.svg">
  <defs
     id="defs4">
    <inkscape:perspective
       sodipodi:type="inkscape:persp3d"
       inkscape:vp_x="0 : 526.18109 : 1"
       inkscape:vp_y="0 : 1000 : 0"
       inkscape:vp_z="744.09448 : 526.18109 : 1"
       inkscape:persp3d-origin="372.04724 : 350.78739 : 1"
       id="perspective10" />
    <inkscape:perspective
       id="perspective3642"
       inkscape:persp3d-origin="0.5 : 0.33333333 : 1"
       inkscape:vp_z="1 : 0.5 : 1"
       inkscape:vp_y="0 : 1000 : 0"
       inkscape:vp_x="0 : 0.5 : 1"
       sodipodi:type="inkscape:persp3d" />
    <inkscape:perspective
       id="perspective3664"
       inkscape:persp3d-origin="0.5 : 0.33333333 : 1"
       inkscape:vp_z="1 : 0.5 : 1"
       inkscape:vp_y="0 : 1000 : 0"
       inkscape:vp_x="0 : 0.5 : 1"
       sodipodi:type="inkscape:persp3d" />
    <inkscape:perspective
       id="perspective3686"
       inkscape:persp3d-origin="0.5 : 0.33333333 : 1"
       inkscape:vp_z="1 : 0.5 : 1"
       inkscape:vp_y="0 : 1000 : 0"
       inkscape:vp_x="0 : 0.5 : 1"
       sodipodi:type="inkscape:persp3d" />
  </defs>
  <sodipodi:namedview
     id="base"
     pagecolor="#ffffff"
     bordercolor="#666666"
     borderopacity="1.0"
     inkscape:pageopacity="0.0"
     inkscape:pageshadow="2"
     inkscape:zoom="0.7"
     inkscape:cx="201.23029"
     inkscape:cy="400.90811"
     inkscape:document-units="px"
     inkscape:current-layer="layer1"
     showgrid="false"
     inkscape:window-width="1280"
     inkscape:window-height="968"
     inkscape:window-x="1916"
     inkscape:window-y="92"
     inkscape:window-maximized="1" />
  <metadata
     id="metadata7">
    <rdf:RDF>
      <cc:Work
         rdf:about="">
        <dc:format>image/svg+xml</dc:format>
        <dc:type
           rdf:resource="http://purl.org/dc/dcmitype/StillImage" />
        <dc:title />
      </cc:Work>
    </rdf:RDF>
  </metadata>
  <g
     inkscape:label="Layer 1"
     inkscape:groupmode="layer"
     id="layer1"
     transform="translate(-77.829799,-37.504326)">
    <path
       style="fill:none;stroke:#00d6ff;stroke-width:10;stroke-linecap:butt;stroke-linejoin:miter;stroke-miterlimit:4;stroke-opacity:1;stroke-dasharray:none"
       d="m 234.28571,626.6479 c 33.63539,-66.42694 81.32352,-129.48411 117.14286,-197.14286 11.45089,-21.62946 21.75834,-42.68225 31.00952,-63.06882 9.25118,-20.38658 17.44609,-40.10693 24.67192,-59.07153 7.22583,-18.9646 13.48258,-37.17345 18.85742,-54.53699 5.37484,-17.36355 9.86779,-33.8818 13.56601,-49.46522 3.69822,-15.58342 6.60172,-30.232 8.79768,-43.8562 2.19596,-13.62421 3.68438,-26.22403 4.55245,-37.70995 0.86806,-11.48591 1.11577,-21.857907 0.8303,-31.026448 -0.28547,-9.168541 -1.10411,-17.133627 -2.36875,-23.805717 -1.26464,-6.67209 -2.97527,-12.051184 -5.04471,-16.047743 -2.06944,-3.996559 -4.4977,-6.610582 -7.19759,-7.75253 -2.69988,-1.141948 -5.6714,-0.81182 -8.82737,1.079923 -3.15596,1.891743 -6.49638,5.345102 -9.93406,10.449616 -3.43768,5.104513 -6.97263,11.860183 -10.51767,20.356547 -3.54503,8.496365 -7.10015,18.733425 -10.57818,30.800722 -3.47802,12.06729 -6.87895,25.96482 -10.1156,41.78213 -3.23665,15.8173 -6.30903,33.55438 -9.12994,53.30078 -4.65076,32.55535 -7.93062,65.87222 -10.14682,99.73498 -2.2162,33.86276 -3.36874,68.27143 -3.76486,103.01037 -0.39613,34.73894 -0.0358,69.80817 0.77362,104.99205 0.80945,35.18388 2.06808,70.48243 3.46863,105.68002 1.40055,35.19758 2.94302,70.29421 4.32016,105.07427 1.37715,34.78005 2.58898,69.24353 3.32823,103.17481 0.73926,33.93128 1.00595,67.33036 0.49282,99.98164"
       id="path2854"
       sodipodi:nodetypes="cssssssssssssssssssssssss" />
    <path
       style="fill:#800080;stroke:#000000;stroke-width:10;stroke-linecap:butt;stroke-linejoin:miter;stroke-miterlimit:4;stroke-opacity:1;stroke-dasharray:none"
       d="m 328.57143,589.50504 c 30.47619,0 60.95238,0 91.42857,0"
       id="path2856" />
    <path
       style="fill:none;stroke:#5052fd;stroke-width:10;stroke-linecap:butt;stroke-linejoin:miter;stroke-miterlimit:4;stroke-opacity:1;stroke-dasharray:none"
       d="m 234.286,626.64358 c 33.63539,-66.42694 81.32352,-129.48411 117.14286,-197.14286 11.45089,-21.62946 21.75834,-42.68225 31.00952,-63.06882"
       id="path2854-1"
       sodipodi:nodetypes="csc" />
    <path
       style="fill:none;stroke:#15c201;stroke-width:10;stroke-linecap:butt;stroke-linejoin:miter;stroke-miterlimit:4;stroke-opacity:1;stroke-dasharray:none"
       d="m 382.43838,366.43589 c 9.25118,-20.38658 17.44609,-40.10693 24.67192,-59.07153 7.22583,-18.9646 13.48258,-37.17345 18.85742,-54.53699 5.37484,-17.36355 9.86779,-33.8818 13.56601,-49.46522 3.69822,-15.58342 6.60172,-30.232 8.79768,-43.8562 2.19596,-13.62421 3.68438,-26.22403 4.55245,-37.70995 0.86806,-11.48591 1.11577,-21.857907 0.8303,-31.026447 -0.28547,-9.16854 -1.10411,-17.13363 -2.36875,-23.80572 -1.26464,-6.67209 -2.97527,-12.05119 -5.04471,-16.04774 -2.06944,-3.99656 -4.4977,-6.61059 -7.19759,-7.75253"
       id="path2854-7"
       sodipodi:nodetypes="cssssssssc" />
    <path
       style="fill:none;stroke:#ff6a00;stroke-width:10;stroke-linecap:butt;stroke-linejoin:miter;stroke-miterlimit:4;stroke-opacity:1;stroke-dasharray:none"
       d="m 439.10311,43.163583 c -2.69988,-1.14195 -5.6714,-0.81182 -8.82737,1.07992 -3.15596,1.89174 -6.49638,5.3451 -9.93406,10.44961 -3.43768,5.10452 -6.97263,11.86019 -10.51767,20.35655 -3.54503,8.49637 -7.10015,18.73343 -10.57818,30.800717 -3.47802,12.06729 -6.87895,25.96482 -10.1156,41.78213 -3.23665,15.8173 -6.30903,33.55438 -9.12994,53.30078 -4.65076,32.55535 -7.93062,65.87222 -10.14682,99.73498 -1.1081,16.93138 -1.95028,33.99924 -2.56496,51.17662"
       id="path2854-4"
       sodipodi:nodetypes="cssssssss" />
    <flowRoot
       xml:space="preserve"
       id="flowRoot3700"
       style="font-size:40px;font-style:normal;font-weight:normal;fill:#000000;fill-opacity:1;stroke:none;font-family:Bitstream Vera Sans"
       transform="translate(-27.142857,317.14286)"><flowRegion
         id="flowRegion3702"><rect
           id="rect3704"
           width="141.42857"
           height="47.142857"
           x="102.85714"
           y="400.93362" /></flowRegion><flowPara
         id="flowPara3706">Gerade</flowPara></flowRoot>    <text
       xml:space="preserve"
       style="font-size:40px;font-style:normal;font-weight:normal;fill:#000000;fill-opacity:1;stroke:none;font-family:Bitstream Vera Sans"
       x="97.142853"
       y="183.79076"
       id="text3708"><tspan
         sodipodi:role="line"
         id="tspan3710"
         x="97.142853"
         y="183.79076">Kurve</tspan></text>
    <path
       style="fill:none;stroke:#000000;stroke-width:1px;stroke-linecap:butt;stroke-linejoin:miter;stroke-opacity:1"
       d="m 370,173.79075 -148.57143,1.42858 184.28572,74.28571"
       id="path3712" />
    <path
       style="fill:none;stroke:#000000;stroke-width:1px;stroke-linecap:butt;stroke-linejoin:miter;stroke-opacity:1"
       d="M 235.71429,635.21933 212.85714,738.07647 324.28571,599.50504 m -110,138.57143 134.28572,14.28571"
       id="path3714" />
  </g>
</svg>
