<?xml version="1.0" standalone="yes"?>

<svg version="1.1" viewBox="0.0 0.0 1110.0 741.0" fill="none" stroke="none" stroke-linecap="square" stroke-miterlimit="10" xmlns="http://www.w3.org/2000/svg" xmlns:xlink="http://www.w3.org/1999/xlink"><path d="M231.98425 309.78217L271.62204 309.78217L271.62204 298.4672L294.25198 321.0971L271.62204 343.72702L271.62204 332.41208L231.98425 332.41208Z" fill-rule="nonzero" fill="#cfe2f3" stroke="#073763" stroke-width="2.0" stroke-linejoin="round" stroke-linecap="butt"></path><path d="M620.0079 309.78217L659.6457 309.78217L659.6457 298.4672L682.2756 321.0971L659.6457 343.72702L659.6457 332.41208L620.0079 332.41208Z" fill-rule="nonzero" fill="#cfe2f3" stroke="#073763" stroke-width="2.0" stroke-linejoin="round" stroke-linecap="butt"></path><path d="M793.64307 283.34253L816.57806 268.0525L839.5131 283.34253L816.57806 298.63254Z" fill-rule="nonzero" fill="#cfe2f3" stroke="#073763" stroke-width="2.0" stroke-linejoin="round" stroke-linecap="butt"></path><path d="M786.35956 387.4672L786.35956 387.4672C786.35956 379.4221 792.8814 372.90027 800.9265 372.90027L800.9265 372.90027C804.7899 372.90027 808.49506 374.435 811.22687 377.1668C813.95874 379.89865 815.4934 383.6038 815.4934 387.4672L815.4934 387.4672C815.4934 395.5123 808.9716 402.03412 800.9265 402.03412L800.9265 402.03412C792.8814 402.03412 786.35956 395.5123 786.35956 387.4672Z" fill-rule="nonzero" fill="#cfe2f3" stroke="#073763" stroke-width="2.0" stroke-linejoin="round" stroke-linecap="butt"></path><path d="M851.8714 461.71652L851.8714 461.71652C851.8714 453.67145 858.39325 447.1496 866.4383 447.1496L866.4383 447.1496C870.3017 447.1496 874.00684 448.68433 876.7387 451.41617C879.4705 454.14798 881.00525 457.85315 881.00525 461.71652L881.00525 461.71652C881.00525 469.76163 874.4834 476.28348 866.4383 476.28348L866.4383 476.28348C858.39325 476.28348 851.8714 469.76163 851.8714 461.71652Z" fill-rule="nonzero" fill="#cfe2f3" stroke="#073763" stroke-width="2.0" stroke-linejoin="round" stroke-linecap="butt"></path><path d="M901.3622 387.4672L901.3622 387.4672C901.3622 379.4221 907.88403 372.90027 915.92914 372.90027L915.92914 372.90027C919.79254 372.90027 923.4977 374.435 926.2295 377.1668C928.96136 379.89865 930.49603 383.6038 930.49603 387.4672L930.49603 387.4672C930.49603 395.5123 923.97424 402.03412 915.92914 402.03412L915.92914 402.03412C907.88403 402.03412 901.3622 395.5123 901.3622 387.4672Z" fill-rule="nonzero" fill="#cfe2f3" stroke="#073763" stroke-width="2.0" stroke-linejoin="round" stroke-linecap="butt"></path><path d="M901.3622 283.34253L901.3622 283.34253C901.3622 275.29742 907.88403 268.7756 915.92914 268.7756L915.92914 268.7756C919.79254 268.7756 923.4977 270.3103 926.2295 273.04214C928.96136 275.774 930.49603 279.47913 930.49603 283.34253L930.49603 283.34253C930.49603 291.3876 923.97424 297.90945 915.92914 297.90945L915.92914 297.90945C907.88403 297.90945 901.3622 291.3876 901.3622 283.34253Z" fill-rule="nonzero" fill="#cfe2f3" stroke="#073763" stroke-width="2.0" stroke-linejoin="round" stroke-linecap="butt"></path><path d="M1001.8084 283.34253L1001.8084 283.34253C1001.8084 275.29742 1008.33026 268.7756 1016.3753 268.7756L1016.3753 268.7756C1020.2387 268.7756 1023.94385 270.3103 1026.6757 273.04214C1029.4075 275.774 1030.9423 279.47913 1030.9423 283.34253L1030.9423 283.34253C1030.9423 291.3876 1024.4204 297.90945 1016.3753 297.90945L1016.3753 297.90945C1008.33026 297.90945 1001.8084 291.3876 1001.8084 283.34253Z" fill-rule="nonzero" fill="#cfe2f3" stroke="#073763" stroke-width="2.0" stroke-linejoin="round" stroke-linecap="butt"></path><path d="M901.3622 239.979L901.3622 239.979C901.3622 231.93391 907.88403 225.41208 915.92914 225.41208L915.92914 225.41208C919.79254 225.41208 923.4977 226.9468 926.2295 229.67863C928.96136 232.41046 930.49603 236.11562 930.49603 239.979L930.49603 239.979C930.49603 248.0241 923.97424 254.54593 915.92914 254.54593L915.92914 254.54593C907.88403 254.54593 901.3622 248.0241 901.3622 239.979Z" fill-rule="nonzero" fill="#cfe2f3" stroke="#073763" stroke-width="2.0" stroke-linejoin="round" stroke-linecap="butt"></path><path d="M1001.8084 202.43307L1001.8084 202.43307C1001.8084 194.38799 1008.33026 187.86613 1016.3753 187.86613L1016.3753 187.86613C1020.2387 187.86613 1023.94385 189.40086 1026.6757 192.13269C1029.4075 194.86453 1030.9423 198.56969 1030.9423 202.43307L1030.9423 202.43307C1030.9423 210.47816 1024.4204 217.0 1016.3753 217.0L1016.3753 217.0C1008.33026 217.0 1001.8084 210.47816 1001.8084 202.43307Z" fill-rule="nonzero" fill="#cfe2f3" stroke="#073763" stroke-width="2.0" stroke-linejoin="round" stroke-linecap="butt"></path><path d="M1001.8084 387.4672L1001.8084 387.4672C1001.8084 379.4221 1008.33026 372.90027 1016.3753 372.90027L1016.3753 372.90027C1020.2387 372.90027 1023.94385 374.435 1026.6757 377.1668C1029.4075 379.89865 1030.9423 383.6038 1030.9423 387.4672L1030.9423 387.4672C1030.9423 395.5123 1024.4204 402.03412 1016.3753 402.03412L1016.3753 402.03412C1008.33026 402.03412 1001.8084 395.5123 1001.8084 387.4672Z" fill-rule="nonzero" fill="#cfe2f3" stroke="#073763" stroke-width="2.0" stroke-linejoin="round" stroke-linecap="butt"></path><path d="M840.24146 284.07086L889.4068 284.07086" fill-rule="evenodd" stroke="#073763" stroke-width="2.0" stroke-linejoin="round" stroke-linecap="butt"></path><path d="M889.4068 287.37433L898.483 284.07086L889.4068 280.7674Z" fill-rule="evenodd" fill="#073763" stroke="#073763" stroke-width="2.0" stroke-linecap="butt"></path><path d="M816.50134 268.98688L888.62006 244.8022" fill-rule="evenodd" stroke="#073763" stroke-width="2.0" stroke-linejoin="round" stroke-linecap="butt"></path><path d="M889.67035 247.93425L897.2253 241.91649L887.56976 241.67017Z" fill-rule="evenodd" fill="#073763" stroke="#073763" stroke-width="2.0" stroke-linecap="butt"></path><path d="M815.50134 298.4882L803.34894 359.7256" fill-rule="evenodd" stroke="#073763" stroke-width="2.0" stroke-linejoin="round" stroke-linecap="butt"></path><path d="M800.10864 359.08258L801.5823 368.62817L806.58923 360.36862Z" fill-rule="evenodd" fill="#073763" stroke="#073763" stroke-width="2.0" stroke-linecap="butt"></path><path d="M816.0 390.98688L887.4969 390.12384" fill-rule="evenodd" stroke="#073763" stroke-width="2.0" stroke-linejoin="round" stroke-linecap="butt"></path><path d="M887.5368 393.42706L896.57245 390.01428L887.45703 386.82062Z" fill-rule="evenodd" fill="#073763" stroke="#073763" stroke-width="2.0" stroke-linecap="butt"></path><path d="M916.0 372.4882L997.8072 303.70673" fill-rule="evenodd" stroke="#073763" stroke-width="2.0" stroke-linejoin="round" stroke-linecap="butt"></path><path d="M999.9331 306.23526L1004.7542 297.86584L995.6813 301.17822Z" fill-rule="evenodd" fill="#073763" stroke="#073763" stroke-width="2.0" stroke-linecap="butt"></path><path d="M930.50134 281.4882L987.5121 280.2392" fill-rule="evenodd" stroke="#073763" stroke-width="2.0" stroke-linejoin="round" stroke-linecap="butt"></path><path d="M987.5845 283.54187L996.5861 280.0404L987.43976 276.93652Z" fill-rule="evenodd" fill="#073763" stroke="#073763" stroke-width="2.0" stroke-linecap="butt"></path><path d="M911.0 372.98688L915.19226 311.44733" fill-rule="evenodd" stroke="#073763" stroke-width="2.0" stroke-linejoin="round" stroke-linecap="butt"></path><path d="M918.4881 311.67184L915.80914 302.39212L911.8965 311.2228Z" fill-rule="evenodd" fill="#073763" stroke="#073763" stroke-width="2.0" stroke-linecap="butt"></path><path d="M930.0 232.48819L989.5614 205.44867" fill-rule="evenodd" stroke="#073763" stroke-width="2.0" stroke-linejoin="round" stroke-linecap="butt"></path><path d="M990.927 208.45668L997.82587 201.69681L988.19586 202.44067Z" fill-rule="evenodd" fill="#073763" stroke="#073763" stroke-width="2.0" stroke-linecap="butt"></path><path d="M810.0 399.4882L846.11597 440.92975" fill-rule="evenodd" stroke="#073763" stroke-width="2.0" stroke-linejoin="round" stroke-linecap="butt"></path><path d="M843.6255 443.10013L852.07904 447.77216L848.6064 438.75934Z" fill-rule="evenodd" fill="#073763" stroke="#073763" stroke-width="2.0" stroke-linecap="butt"></path><path d="M880.0 456.4882L991.7116 401.767" fill-rule="evenodd" stroke="#073763" stroke-width="2.0" stroke-linejoin="round" stroke-linecap="butt"></path><path d="M993.1648 404.73367L999.8624 397.77438L990.2584 398.80035Z" fill-rule="evenodd" fill="#073763" stroke="#073763" stroke-width="2.0" stroke-linecap="butt"></path><path d="M1002.50134 384.98688L942.49677 386.64053" fill-rule="evenodd" stroke="#073763" stroke-width="2.0" stroke-linejoin="round" stroke-linecap="butt"></path><path d="M942.40576 383.33835L933.424 386.8906L942.58777 389.94275Z" fill-rule="evenodd" fill="#073763" stroke="#073763" stroke-width="2.0" stroke-linecap="butt"></path><path d="M1013.50134 268.98688L1013.50134 229.49081" fill-rule="evenodd" stroke="#073763" stroke-width="2.0" stroke-linejoin="round" stroke-linecap="butt"></path><path d="M1016.8048 229.49081L1013.50134 220.41461L1010.1979 229.49081Z" fill-rule="evenodd" fill="#073763" stroke="#073763" stroke-width="2.0" stroke-linecap="butt"></path><path d="M870.3622 180.47769L870.3622 180.47769C870.3622 172.4326 876.88403 165.91077 884.92914 165.91077L884.92914 165.91077C888.79254 165.91077 892.4977 167.44548 895.2295 170.17732C897.96136 172.90915 899.49603 176.6143 899.49603 180.47769L899.49603 180.47769C899.49603 188.52278 892.97424 195.04462 884.92914 195.04462L884.92914 195.04462C876.88403 195.04462 870.3622 188.52278 870.3622 180.47769Z" fill-rule="nonzero" fill="#cfe2f3" stroke="#073763" stroke-width="2.0" stroke-linejoin="round" stroke-linecap="butt"></path><path d="M1005.0 194.48819L911.8466 179.8474" fill-rule="evenodd" stroke="#073763" stroke-width="2.0" stroke-linejoin="round" stroke-linecap="butt"></path><path d="M912.3595 176.584L902.8805 178.43822L911.3337 183.11081Z" fill-rule="evenodd" fill="#073763" stroke="#073763" stroke-width="2.0" stroke-linecap="butt"></path><path d="M870.50134 186.48819L823.60364 257.4834" fill-rule="evenodd" stroke="#073763" stroke-width="2.0" stroke-linejoin="round" stroke-linecap="butt"></path><path d="M820.8472 255.66261L818.601 265.0565L826.36 259.3042Z" fill-rule="evenodd" fill="#073763" stroke="#073763" stroke-width="2.0" stroke-linecap="butt"></path></svg>

