<?xml version="1.0" encoding="UTF-8" standalone="no"?>
<svg
   xmlns:dc="http://purl.org/dc/elements/1.1/"
   xmlns:cc="http://creativecommons.org/ns#"
   xmlns:rdf="http://www.w3.org/1999/02/22-rdf-syntax-ns#"
   xmlns:svg="http://www.w3.org/2000/svg"
   xmlns="http://www.w3.org/2000/svg"
   xmlns:sodipodi="http://sodipodi.sourceforge.net/DTD/sodipodi-0.dtd"
   xmlns:inkscape="http://www.inkscape.org/namespaces/inkscape"
   version="1.1"
   viewBox="0 0 667.22497 349.28398"
   stroke-miterlimit="10"
   id="svg2"
   inkscape:version="0.47 r22583"
   width="100%"
   height="100%"
   sodipodi:docname="graph_ablauf_beispiel.svg"
   style="fill:none;stroke:none">
  <metadata
     id="metadata88">
    <rdf:RDF>
      <cc:Work
         rdf:about="">
        <dc:format>image/svg+xml</dc:format>
        <dc:type
           rdf:resource="http://purl.org/dc/dcmitype/StillImage" />
        <dc:title />
      </cc:Work>
    </rdf:RDF>
  </metadata>
  <defs
     id="defs86">
    <inkscape:perspective
       sodipodi:type="inkscape:persp3d"
       inkscape:vp_x="0 : 370.5 : 1"
       inkscape:vp_y="0 : 1000 : 0"
       inkscape:vp_z="1110 : 370.5 : 1"
       inkscape:persp3d-origin="555 : 247 : 1"
       id="perspective90" />
    <inkscape:perspective
       sodipodi:type="inkscape:persp3d"
       inkscape:vp_x="0 : 0.5 : 1"
       inkscape:vp_y="0 : 1000 : 0"
       inkscape:vp_z="1 : 0.5 : 1"
       inkscape:persp3d-origin="0.5 : 0.33333333 : 1"
       id="perspective3686" />
    <inkscape:perspective
       sodipodi:type="inkscape:persp3d"
       inkscape:vp_x="0 : 0.5 : 1"
       inkscape:vp_y="0 : 1000 : 0"
       inkscape:vp_z="1 : 0.5 : 1"
       inkscape:persp3d-origin="0.5 : 0.33333333 : 1"
       id="perspective3664" />
    <inkscape:perspective
       sodipodi:type="inkscape:persp3d"
       inkscape:vp_x="0 : 0.5 : 1"
       inkscape:vp_y="0 : 1000 : 0"
       inkscape:vp_z="1 : 0.5 : 1"
       inkscape:persp3d-origin="0.5 : 0.33333333 : 1"
       id="perspective3642" />
    <inkscape:perspective
       id="perspective10"
       inkscape:persp3d-origin="372.04724 : 350.78739 : 1"
       inkscape:vp_z="744.09448 : 526.18109 : 1"
       inkscape:vp_y="0 : 1000 : 0"
       inkscape:vp_x="0 : 526.18109 : 1"
       sodipodi:type="inkscape:persp3d" />
    <inkscape:perspective
       id="perspective2951"
       inkscape:persp3d-origin="0.5 : 0.33333333 : 1"
       inkscape:vp_z="1 : 0.5 : 1"
       inkscape:vp_y="0 : 1000 : 0"
       inkscape:vp_x="0 : 0.5 : 1"
       sodipodi:type="inkscape:persp3d" />
    <inkscape:perspective
       id="perspective2951-4"
       inkscape:persp3d-origin="0.5 : 0.33333333 : 1"
       inkscape:vp_z="1 : 0.5 : 1"
       inkscape:vp_y="0 : 1000 : 0"
       inkscape:vp_x="0 : 0.5 : 1"
       sodipodi:type="inkscape:persp3d" />
    <inkscape:perspective
       id="perspective2984"
       inkscape:persp3d-origin="0.5 : 0.33333333 : 1"
       inkscape:vp_z="1 : 0.5 : 1"
       inkscape:vp_y="0 : 1000 : 0"
       inkscape:vp_x="0 : 0.5 : 1"
       sodipodi:type="inkscape:persp3d" />
    <inkscape:perspective
       id="perspective3006"
       inkscape:persp3d-origin="0.5 : 0.33333333 : 1"
       inkscape:vp_z="1 : 0.5 : 1"
       inkscape:vp_y="0 : 1000 : 0"
       inkscape:vp_x="0 : 0.5 : 1"
       sodipodi:type="inkscape:persp3d" />
    <inkscape:perspective
       id="perspective3006-8"
       inkscape:persp3d-origin="0.5 : 0.33333333 : 1"
       inkscape:vp_z="1 : 0.5 : 1"
       inkscape:vp_y="0 : 1000 : 0"
       inkscape:vp_x="0 : 0.5 : 1"
       sodipodi:type="inkscape:persp3d" />
    <inkscape:perspective
       id="perspective3041"
       inkscape:persp3d-origin="0.5 : 0.33333333 : 1"
       inkscape:vp_z="1 : 0.5 : 1"
       inkscape:vp_y="0 : 1000 : 0"
       inkscape:vp_x="0 : 0.5 : 1"
       sodipodi:type="inkscape:persp3d" />
    <inkscape:perspective
       id="perspective3041-5"
       inkscape:persp3d-origin="0.5 : 0.33333333 : 1"
       inkscape:vp_z="1 : 0.5 : 1"
       inkscape:vp_y="0 : 1000 : 0"
       inkscape:vp_x="0 : 0.5 : 1"
       sodipodi:type="inkscape:persp3d" />
    <inkscape:perspective
       id="perspective3077"
       inkscape:persp3d-origin="0.5 : 0.33333333 : 1"
       inkscape:vp_z="1 : 0.5 : 1"
       inkscape:vp_y="0 : 1000 : 0"
       inkscape:vp_x="0 : 0.5 : 1"
       sodipodi:type="inkscape:persp3d" />
    <inkscape:perspective
       id="perspective3102"
       inkscape:persp3d-origin="0.5 : 0.33333333 : 1"
       inkscape:vp_z="1 : 0.5 : 1"
       inkscape:vp_y="0 : 1000 : 0"
       inkscape:vp_x="0 : 0.5 : 1"
       sodipodi:type="inkscape:persp3d" />
    <inkscape:perspective
       id="perspective3130"
       inkscape:persp3d-origin="0.5 : 0.33333333 : 1"
       inkscape:vp_z="1 : 0.5 : 1"
       inkscape:vp_y="0 : 1000 : 0"
       inkscape:vp_x="0 : 0.5 : 1"
       sodipodi:type="inkscape:persp3d" />
    <inkscape:perspective
       id="perspective3130-2"
       inkscape:persp3d-origin="0.5 : 0.33333333 : 1"
       inkscape:vp_z="1 : 0.5 : 1"
       inkscape:vp_y="0 : 1000 : 0"
       inkscape:vp_x="0 : 0.5 : 1"
       sodipodi:type="inkscape:persp3d" />
    <inkscape:perspective
       id="perspective3171"
       inkscape:persp3d-origin="0.5 : 0.33333333 : 1"
       inkscape:vp_z="1 : 0.5 : 1"
       inkscape:vp_y="0 : 1000 : 0"
       inkscape:vp_x="0 : 0.5 : 1"
       sodipodi:type="inkscape:persp3d" />
    <inkscape:perspective
       id="perspective3171-8"
       inkscape:persp3d-origin="0.5 : 0.33333333 : 1"
       inkscape:vp_z="1 : 0.5 : 1"
       inkscape:vp_y="0 : 1000 : 0"
       inkscape:vp_x="0 : 0.5 : 1"
       sodipodi:type="inkscape:persp3d" />
    <inkscape:perspective
       id="perspective3171-6"
       inkscape:persp3d-origin="0.5 : 0.33333333 : 1"
       inkscape:vp_z="1 : 0.5 : 1"
       inkscape:vp_y="0 : 1000 : 0"
       inkscape:vp_x="0 : 0.5 : 1"
       sodipodi:type="inkscape:persp3d" />
    <inkscape:perspective
       id="perspective3218"
       inkscape:persp3d-origin="0.5 : 0.33333333 : 1"
       inkscape:vp_z="1 : 0.5 : 1"
       inkscape:vp_y="0 : 1000 : 0"
       inkscape:vp_x="0 : 0.5 : 1"
       sodipodi:type="inkscape:persp3d" />
    <inkscape:perspective
       id="perspective3218-9"
       inkscape:persp3d-origin="0.5 : 0.33333333 : 1"
       inkscape:vp_z="1 : 0.5 : 1"
       inkscape:vp_y="0 : 1000 : 0"
       inkscape:vp_x="0 : 0.5 : 1"
       sodipodi:type="inkscape:persp3d" />
    <inkscape:perspective
       id="perspective3254"
       inkscape:persp3d-origin="0.5 : 0.33333333 : 1"
       inkscape:vp_z="1 : 0.5 : 1"
       inkscape:vp_y="0 : 1000 : 0"
       inkscape:vp_x="0 : 0.5 : 1"
       sodipodi:type="inkscape:persp3d" />
    <inkscape:perspective
       id="perspective3279"
       inkscape:persp3d-origin="0.5 : 0.33333333 : 1"
       inkscape:vp_z="1 : 0.5 : 1"
       inkscape:vp_y="0 : 1000 : 0"
       inkscape:vp_x="0 : 0.5 : 1"
       sodipodi:type="inkscape:persp3d" />
    <inkscape:perspective
       id="perspective3279-4"
       inkscape:persp3d-origin="0.5 : 0.33333333 : 1"
       inkscape:vp_z="1 : 0.5 : 1"
       inkscape:vp_y="0 : 1000 : 0"
       inkscape:vp_x="0 : 0.5 : 1"
       sodipodi:type="inkscape:persp3d" />
    <inkscape:perspective
       id="perspective3315"
       inkscape:persp3d-origin="0.5 : 0.33333333 : 1"
       inkscape:vp_z="1 : 0.5 : 1"
       inkscape:vp_y="0 : 1000 : 0"
       inkscape:vp_x="0 : 0.5 : 1"
       sodipodi:type="inkscape:persp3d" />
  </defs>
  <sodipodi:namedview
     pagecolor="#ffffff"
     bordercolor="#666666"
     borderopacity="1"
     objecttolerance="10"
     gridtolerance="10"
     guidetolerance="10"
     inkscape:pageopacity="0"
     inkscape:pageshadow="2"
     inkscape:window-width="1280"
     inkscape:window-height="744"
     id="namedview84"
     showgrid="false"
     showguides="true"
     inkscape:guide-bbox="true"
     inkscape:zoom="1.9047033"
     inkscape:cx="539.95156"
     inkscape:cy="135.07376"
     inkscape:window-x="-4"
     inkscape:window-y="-4"
     inkscape:window-maximized="1"
     inkscape:current-layer="svg2">
    <sodipodi:guide
       orientation="1,0"
       position="303.39287,155.88357"
       id="guide2974" />
  </sodipodi:namedview>
  <path
     d="m 132.10858,163.80182 39.63779,0 0,-11.31497 22.62994,22.6299 -22.62994,22.62992 0,-11.31494 -39.63779,0 z"
     id="path4"
     style="fill:#cfe2f3;fill-rule:nonzero;stroke:#073763;stroke-width:2;stroke-linecap:butt;stroke-linejoin:round" />
  <path
     d="m 342.13223,163.80182 39.6378,0 0,-11.31497 22.6299,22.6299 -22.6299,22.62992 0,-11.31494 -39.6378,0 z"
     id="path6"
     style="fill:#cfe2f3;fill-rule:nonzero;stroke:#073763;stroke-width:2;stroke-linecap:butt;stroke-linejoin:round" />
  <path
     d="m 428.92574,144.68418 22.93499,-15.29003 22.93504,15.29003 -22.93504,15.29001 z"
     id="path8"
     style="fill:#cfe2f3;fill-rule:nonzero;stroke:#073763;stroke-width:2;stroke-linecap:butt;stroke-linejoin:round" />
  <path
     d="m 421.64223,248.80885 0,0 c 0,-8.0451 6.52184,-14.56693 14.56694,-14.56693 l 0,0 c 3.8634,0 7.56856,1.53473 10.30037,4.26653 2.73187,2.73185 4.26653,6.437 4.26653,10.3004 l 0,0 c 0,8.0451 -6.5218,14.56692 -14.5669,14.56692 l 0,0 c -8.0451,0 -14.56694,-6.52182 -14.56694,-14.56692 z"
     id="path10"
     style="fill:#ff1211;fill-opacity:1;fill-rule:nonzero;stroke:#000000;stroke-width:2;stroke-linecap:butt;stroke-linejoin:round;stroke-opacity:1" />
  <path
     d="m 487.15407,323.05817 0,0 c 0,-8.04507 6.52185,-14.56692 14.5669,-14.56692 l 0,0 c 3.8634,0 7.56854,1.53473 10.3004,4.26657 2.7318,2.73181 4.26655,6.43698 4.26655,10.30035 l 0,0 c 0,8.04511 -6.52185,14.56696 -14.56695,14.56696 l 0,0 c -8.04505,0 -14.5669,-6.52185 -14.5669,-14.56696 z"
     id="path12"
     style="fill:#ff1211;fill-opacity:1;fill-rule:nonzero;stroke:#000000;stroke-width:2;stroke-linecap:butt;stroke-linejoin:round;stroke-opacity:1" />
  <path
     d="m 536.64487,248.80885 0,0 c 0,-8.0451 6.52183,-14.56693 14.56694,-14.56693 l 0,0 c 3.8634,0 7.56856,1.53473 10.30036,4.26653 2.73186,2.73185 4.26653,6.437 4.26653,10.3004 l 0,0 c 0,8.0451 -6.52179,14.56692 -14.56689,14.56692 l 0,0 c -8.04511,0 -14.56694,-6.52182 -14.56694,-14.56692 z"
     id="path14"
     style="fill:#ff1211;fill-opacity:1;fill-rule:nonzero;stroke:#000000;stroke-width:2;stroke-linecap:butt;stroke-linejoin:round;stroke-opacity:1" />
  <path
     d="m 536.64487,144.68418 0,0 c 0,-8.04511 6.52183,-14.56693 14.56694,-14.56693 l 0,0 c 3.8634,0 7.56856,1.5347 10.30036,4.26654 2.73186,2.73186 4.26653,6.43699 4.26653,10.30039 l 0,0 c 0,8.04507 -6.52179,14.56692 -14.56689,14.56692 l 0,0 c -8.04511,0 -14.56694,-6.52185 -14.56694,-14.56692 z"
     id="path16"
     style="fill:#cfe2f3;fill-rule:nonzero;stroke:#073763;stroke-width:2;stroke-linecap:butt;stroke-linejoin:round" />
  <path
     d="m 637.09107,144.68418 0,0 c 0,-8.04511 6.52186,-14.56693 14.5669,-14.56693 l 0,0 c 3.8634,0 7.56855,1.5347 10.3004,4.26654 2.7318,2.73186 4.2666,6.43699 4.2666,10.30039 l 0,0 c 0,8.04507 -6.5219,14.56692 -14.567,14.56692 l 0,0 c -8.04504,0 -14.5669,-6.52185 -14.5669,-14.56692 z"
     id="path18"
     style="fill:#ff1211;fill-opacity:1;fill-rule:nonzero;stroke:#000000;stroke-width:2;stroke-linecap:butt;stroke-linejoin:round;stroke-opacity:1" />
  <path
     d="m 536.64487,101.32065 0,0 c 0,-8.045088 6.52183,-14.566918 14.56694,-14.566918 l 0,0 c 3.8634,0 7.56856,1.53472 10.30036,4.26655 2.73186,2.73183 4.26653,6.43699 4.26653,10.300368 l 0,0 c 0,8.0451 -6.52179,14.56693 -14.56689,14.56693 l 0,0 c -8.04511,0 -14.56694,-6.52183 -14.56694,-14.56693 z"
     id="path20"
     style="fill:#cfe2f3;fill-rule:nonzero;stroke:#073763;stroke-width:2;stroke-linecap:butt;stroke-linejoin:round" />
  <path
     d="m 637.09107,63.77472 0,0 c 0,-8.04508 6.52186,-14.56694 14.5669,-14.56694 l 0,0 c 3.8634,0 7.56855,1.53473 10.3004,4.26656 2.7318,2.73184 4.2666,6.437 4.2666,10.30038 l 0,0 c 0,8.04509 -6.5219,14.56693 -14.567,14.56693 l 0,0 c -8.04504,0 -14.5669,-6.52184 -14.5669,-14.56693 z"
     id="path22"
     style="fill:#cfe2f3;fill-rule:nonzero;stroke:#073763;stroke-width:2;stroke-linecap:butt;stroke-linejoin:round" />
  <path
     d="m 637.09107,248.80885 0,0 c 0,-8.0451 6.52186,-14.56693 14.5669,-14.56693 l 0,0 c 3.8634,0 7.56855,1.53473 10.3004,4.26653 2.7318,2.73185 4.2666,6.437 4.2666,10.3004 l 0,0 c 0,8.0451 -6.5219,14.56692 -14.567,14.56692 l 0,0 c -8.04504,0 -14.5669,-6.52182 -14.5669,-14.56692 z"
     id="path24"
     style="fill:#ff1211;fill-opacity:1;fill-rule:nonzero;stroke:#000000;stroke-width:2;stroke-linecap:butt;stroke-linejoin:round;stroke-opacity:1" />
  <path
     d="m 475.52413,145.41251 49.16534,0"
     id="path26"
     style="stroke:#073763;stroke-width:2;stroke-linecap:butt;stroke-linejoin:round" />
  <path
     d="m 524.68947,148.71598 9.0762,-3.30347 -9.0762,-3.30346 z"
     id="path28"
     style="fill:#073763;fill-rule:evenodd;stroke:#073763;stroke-width:2;stroke-linecap:butt" />
  <path
     d="m 451.78401,130.32853 72.11872,-24.18468"
     id="path30"
     style="stroke:#073763;stroke-width:2;stroke-linecap:butt;stroke-linejoin:round" />
  <path
     d="m 524.95302,109.2759 7.55495,-6.01776 -9.65554,-0.24632 z"
     id="path32"
     style="fill:#073763;fill-rule:evenodd;stroke:#073763;stroke-width:2;stroke-linecap:butt" />
  <path
     d="m 450.78401,159.82985 -12.1524,61.2374"
     id="path34"
     style="fill:#ff1211;fill-opacity:1;stroke:#000000;stroke-width:2;stroke-linecap:butt;stroke-linejoin:round;stroke-opacity:1" />
  <path
     d="m 435.39131,220.42423 1.47366,9.54559 5.00693,-8.25955 z"
     id="path36"
     style="fill:#ff1211;fill-opacity:1;fill-rule:evenodd;stroke:#000000;stroke-width:2;stroke-linecap:butt;stroke-opacity:1" />
  <path
     d="m 451.28267,252.32853 71.4969,-0.86304"
     id="path38"
     style="stroke:#073763;stroke-width:2;stroke-linecap:butt;stroke-linejoin:round" />
  <path
     d="m 522.81947,254.76871 9.03565,-3.41278 -9.11542,-3.19366 z"
     id="path40"
     style="fill:#073763;fill-rule:evenodd;stroke:#073763;stroke-width:2;stroke-linecap:butt" />
  <path
     d="m 551.28267,233.82985 81.8072,-68.78147"
     id="path42"
     style="fill:#ff1211;fill-opacity:1;stroke:#000000;stroke-width:2;stroke-linecap:butt;stroke-linejoin:round;stroke-opacity:1" />
  <path
     d="m 635.21577,167.57691 4.8211,-8.36942 -9.0729,3.31238 z"
     id="path44"
     style="fill:#ff1211;fill-opacity:1;fill-rule:evenodd;stroke:#000000;stroke-width:2;stroke-linecap:butt;stroke-opacity:1" />
  <path
     d="m 565.78401,142.82985 57.01076,-1.249"
     id="path46"
     style="stroke:#073763;stroke-width:2;stroke-linecap:butt;stroke-linejoin:round" />
  <path
     d="m 622.86717,144.88352 9.0016,-3.50147 -9.14634,-3.10388 z"
     id="path48"
     style="fill:#073763;fill-rule:evenodd;stroke:#073763;stroke-width:2;stroke-linecap:butt" />
  <path
     d="M 565.28267,93.829842 624.84407,66.79032"
     id="path54"
     style="stroke:#073763;stroke-width:2;stroke-linecap:butt;stroke-linejoin:round" />
  <path
     d="m 626.20967,69.79833 6.89887,-6.75987 -9.63001,0.74386 z"
     id="path56"
     style="fill:#073763;fill-rule:evenodd;stroke:#073763;stroke-width:2;stroke-linecap:butt" />
  <path
     d="m 445.28267,260.82985 36.11597,41.44155"
     id="path58"
     style="fill:#ff1211;fill-opacity:1;stroke:#000000;stroke-width:2;stroke-linecap:butt;stroke-linejoin:round;stroke-opacity:1" />
  <path
     d="m 478.90817,304.44178 8.45354,4.67203 -3.47264,-9.01282 z"
     id="path60"
     style="fill:#ff1211;fill-opacity:1;fill-rule:evenodd;stroke:#000000;stroke-width:2;stroke-linecap:butt;stroke-opacity:1" />
  <path
     d="m 515.28267,317.82985 111.7116,-54.7212"
     id="path62"
     style="fill:#ff1211;fill-opacity:1;stroke:#000000;stroke-width:2;stroke-linecap:butt;stroke-linejoin:round;stroke-opacity:1" />
  <path
     d="m 628.44747,266.07532 6.6976,-6.95929 -9.604,1.02597 z"
     id="path64"
     style="fill:#ff1211;fill-opacity:1;fill-rule:evenodd;stroke:#000000;stroke-width:2;stroke-linecap:butt;stroke-opacity:1" />
  <path
     d="m 637.78401,246.32853 -60.00457,1.65365"
     id="path66"
     style="fill:#ff1211;fill-opacity:1;stroke:#000000;stroke-width:2;stroke-linecap:butt;stroke-linejoin:round;stroke-opacity:1" />
  <path
     d="m 577.68843,244.68 -8.98176,3.55225 9.16377,3.05215 z"
     id="path68"
     style="fill:#ff1211;fill-opacity:1;fill-rule:evenodd;stroke:#000000;stroke-width:2;stroke-linecap:butt;stroke-opacity:1" />
  <path
     d="m 648.78401,130.32853 0,-39.496068"
     id="path70"
     style="stroke:#073763;stroke-width:2;stroke-linecap:butt;stroke-linejoin:round" />
  <path
     d="m 652.08747,90.832462 -3.30346,-9.076202 -3.30344,9.076202 z"
     id="path72"
     style="fill:#073763;fill-rule:evenodd;stroke:#073763;stroke-width:2;stroke-linecap:butt" />
  <path
     d="m 505.64487,41.81934 0,0 c 0,-8.04509 6.52183,-14.56692 14.56694,-14.56692 l 0,0 c 3.8634,0 7.56856,1.53471 10.30036,4.26655 2.73186,2.73183 4.26653,6.43698 4.26653,10.30037 l 0,0 c 0,8.04509 -6.52179,14.56693 -14.56689,14.56693 l 0,0 c -8.04511,0 -14.56694,-6.52184 -14.56694,-14.56693 z"
     id="path74"
     style="fill:#cfe2f3;fill-rule:nonzero;stroke:#073763;stroke-width:2;stroke-linecap:butt;stroke-linejoin:round" />
  <path
     d="M 640.28267,55.82984 547.12927,41.18905"
     id="path76"
     style="stroke:#073763;stroke-width:2;stroke-linecap:butt;stroke-linejoin:round" />
  <path
     d="m 547.64217,37.92565 -9.479,1.85422 8.4532,4.67259 z"
     id="path78"
     style="fill:#073763;fill-rule:evenodd;stroke:#073763;stroke-width:2;stroke-linecap:butt" />
  <path
     d="m 505.78401,47.82984 -46.8977,70.99521"
     id="path80"
     style="stroke:#073763;stroke-width:2;stroke-linecap:butt;stroke-linejoin:round" />
  <path
     d="m 456.12987,117.00426 -2.2462,9.39389 7.759,-5.7523 z"
     id="path82"
     style="fill:#073763;fill-rule:evenodd;stroke:#073763;stroke-width:2;stroke-linecap:butt" />
  <g
     transform="matrix(0.39241977,0,0,0.39241977,-27.607508,-2.8376794)"
     id="layer1"
     inkscape:label="Layer 1">
    <g
       id="g2936"
       transform="translate(-158.93373,-30.273091)">
      <path
         style="fill:none;stroke:#00d6ff;stroke-width:10;stroke-linecap:butt;stroke-linejoin:miter;stroke-miterlimit:4;stroke-opacity:1;stroke-dasharray:none"
         d="m 234.28571,626.6479 c 33.63539,-66.42694 81.32352,-129.48411 117.14286,-197.14286 11.45089,-21.62946 21.75834,-42.68225 31.00952,-63.06882 9.25118,-20.38658 17.44609,-40.10693 24.67192,-59.07153 7.22583,-18.9646 13.48258,-37.17345 18.85742,-54.53699 5.37484,-17.36355 9.86779,-33.8818 13.56601,-49.46522 3.69822,-15.58342 6.60172,-30.232 8.79768,-43.8562 2.19596,-13.62421 3.68438,-26.22403 4.55245,-37.70995 0.86806,-11.48591 1.11577,-21.857907 0.8303,-31.026448 -0.28547,-9.168541 -1.10411,-17.133627 -2.36875,-23.805717 -1.26464,-6.67209 -2.97527,-12.051184 -5.04471,-16.047743 -2.06944,-3.996559 -4.4977,-6.610582 -7.19759,-7.75253 -2.69988,-1.141948 -5.6714,-0.81182 -8.82737,1.079923 -3.15596,1.891743 -6.49638,5.345102 -9.93406,10.449616 -3.43768,5.104513 -6.97263,11.860183 -10.51767,20.356547 -3.54503,8.496365 -7.10015,18.733425 -10.57818,30.800722 -3.47802,12.06729 -6.87895,25.96482 -10.1156,41.78213 -3.23665,15.8173 -6.30903,33.55438 -9.12994,53.30078 -4.65076,32.55535 -7.93062,65.87222 -10.14682,99.73498 -2.2162,33.86276 -3.36874,68.27143 -3.76486,103.01037 -0.39613,34.73894 -0.0358,69.80817 0.77362,104.99205 0.80945,35.18388 2.06808,70.48243 3.46863,105.68002 1.40055,35.19758 2.94302,70.29421 4.32016,105.07427 1.37715,34.78005 2.58898,69.24353 3.32823,103.17481 0.73926,33.93128 1.00595,67.33036 0.49282,99.98164"
         id="path2854"
         sodipodi:nodetypes="cssssssssssssssssssssssss" />
      <path
         style="fill:#800080;stroke:#000000;stroke-width:10;stroke-linecap:butt;stroke-linejoin:miter;stroke-miterlimit:4;stroke-opacity:1;stroke-dasharray:none"
         d="m 328.57143,589.50504 c 30.47619,0 60.95238,0 91.42857,0"
         id="path2856" />
      <path
         style="fill:none;stroke:#5052fd;stroke-width:10;stroke-linecap:butt;stroke-linejoin:miter;stroke-miterlimit:4;stroke-opacity:1;stroke-dasharray:none"
         d="m 234.286,626.64358 c 33.63539,-66.42694 81.32352,-129.48411 117.14286,-197.14286 11.45089,-21.62946 21.75834,-42.68225 31.00952,-63.06882"
         id="path2854-1"
         sodipodi:nodetypes="csc" />
      <path
         style="fill:none;stroke:#15c201;stroke-width:10;stroke-linecap:butt;stroke-linejoin:miter;stroke-miterlimit:4;stroke-opacity:1;stroke-dasharray:none"
         d="m 382.43838,366.43589 c 9.25118,-20.38658 17.44609,-40.10693 24.67192,-59.07153 7.22583,-18.9646 13.48258,-37.17345 18.85742,-54.53699 5.37484,-17.36355 9.86779,-33.8818 13.56601,-49.46522 3.69822,-15.58342 6.60172,-30.232 8.79768,-43.8562 2.19596,-13.62421 3.68438,-26.22403 4.55245,-37.70995 0.86806,-11.48591 1.11577,-21.857907 0.8303,-31.026447 -0.28547,-9.16854 -1.10411,-17.13363 -2.36875,-23.80572 -1.26464,-6.67209 -2.97527,-12.05119 -5.04471,-16.04774 -2.06944,-3.99656 -4.4977,-6.61059 -7.19759,-7.75253"
         id="path2854-7"
         sodipodi:nodetypes="cssssssssc" />
      <path
         style="fill:none;stroke:#ff6a00;stroke-width:10;stroke-linecap:butt;stroke-linejoin:miter;stroke-miterlimit:4;stroke-opacity:1;stroke-dasharray:none"
         d="m 439.10311,43.163583 c -2.69988,-1.14195 -5.6714,-0.81182 -8.82737,1.07992 -3.15596,1.89174 -6.49638,5.3451 -9.93406,10.44961 -3.43768,5.10452 -6.97263,11.86019 -10.51767,20.35655 -3.54503,8.49637 -7.10015,18.73343 -10.57818,30.800717 -3.47802,12.06729 -6.87895,25.96482 -10.1156,41.78213 -3.23665,15.8173 -6.30903,33.55438 -9.12994,53.30078 -4.65076,32.55535 -7.93062,65.87222 -10.14682,99.73498 -1.1081,16.93138 -1.95028,33.99924 -2.56496,51.17662"
         id="path2854-4"
         sodipodi:nodetypes="cssssssss" />
    </g>
  </g>
  <path
     style="fill:#cfe2f3;fill-rule:nonzero;stroke:#073763;stroke-width:2;stroke-linecap:butt;stroke-linejoin:round"
     d="m 244.82593,84.833482 0,0 c 0,-8.04509 6.52183,-14.56692 14.56694,-14.56692 l 0,0 c 3.8634,0 7.56856,1.53471 10.30036,4.26655 2.73186,2.73183 4.26653,6.43698 4.26653,10.30037 l 0,0 c 0,8.04509 -6.52179,14.56693 -14.56689,14.56693 l 0,0 c -8.04511,0 -14.56694,-6.52184 -14.56694,-14.56693 z"
     id="path74-7" />
  <path
     style="fill:#cfe2f3;fill-rule:nonzero;stroke:#073763;stroke-width:2;stroke-linecap:butt;stroke-linejoin:round"
     d="m 244.82593,129.22005 0,0 c 0,-8.04509 6.52183,-14.56692 14.56694,-14.56692 l 0,0 c 3.8634,0 7.56856,1.53471 10.30036,4.26655 2.73186,2.73183 4.26653,6.43698 4.26653,10.30037 l 0,0 c 0,8.04509 -6.52179,14.56693 -14.56689,14.56693 l 0,0 c -8.04511,0 -14.56694,-6.52184 -14.56694,-14.56693 z"
     id="path74-0" />
  <text
     xml:space="preserve"
     style="font-size:16px;font-style:normal;font-weight:normal;fill:#000000;fill-opacity:1;stroke:none;font-family:Bitstream Vera Sans"
     x="253.24442"
     y="90.253021"
     id="text3029"><tspan
       sodipodi:role="line"
       id="tspan3031"
       x="253.24442"
       y="90.253021">G</tspan></text>
  <text
     xml:space="preserve"
     style="font-size:16px;font-style:normal;font-weight:normal;fill:#000000;fill-opacity:1;stroke:none;font-family:Bitstream Vera Sans"
     x="253.4866"
     y="134.83076"
     id="text3029-7"><tspan
       sodipodi:role="line"
       id="tspan3031-1"
       x="253.4866"
       y="134.83076">K</tspan></text>
  <path
     style="fill:#cfe2f3;fill-rule:nonzero;stroke:#073763;stroke-width:2;stroke-linecap:butt;stroke-linejoin:round"
     d="m 244.82593,173.20555 0,0 c 0,-8.04509 6.52183,-14.56692 14.56694,-14.56692 l 0,0 c 3.8634,0 7.56856,1.53471 10.30036,4.26655 2.73186,2.73183 4.26653,6.43698 4.26653,10.30037 l 0,0 c 0,8.04509 -6.52179,14.56693 -14.56689,14.56693 l 0,0 c -8.04511,0 -14.56694,-6.52184 -14.56694,-14.56693 z"
     id="path74-0-1" />
  <text
     xml:space="preserve"
     style="font-size:16px;font-style:normal;font-weight:normal;fill:#000000;fill-opacity:1;stroke:none;font-family:Bitstream Vera Sans"
     x="253.4866"
     y="178.81628"
     id="text3029-7-5"><tspan
       sodipodi:role="line"
       id="tspan3031-1-2"
       x="253.4866"
       y="178.81628">K</tspan></text>
  <path
     style="fill:#cfe2f3;fill-rule:nonzero;stroke:#073763;stroke-width:2;stroke-linecap:butt;stroke-linejoin:round"
     d="m 244.82593,216.25688 0,0 c 0,-8.04509 6.52183,-14.56692 14.56694,-14.56692 l 0,0 c 3.8634,0 7.56856,1.53471 10.30036,4.26655 2.73186,2.73183 4.26653,6.43698 4.26653,10.30037 l 0,0 c 0,8.04509 -6.52179,14.56693 -14.56689,14.56693 l 0,0 c -8.04511,0 -14.56694,-6.52184 -14.56694,-14.56693 z"
     id="path74-7-7" />
  <text
     xml:space="preserve"
     style="font-size:16px;font-style:normal;font-weight:normal;fill:#000000;fill-opacity:1;stroke:none;font-family:Bitstream Vera Sans"
     x="253.24442"
     y="221.67642"
     id="text3029-6"><tspan
       sodipodi:role="line"
       id="tspan3031-14"
       x="253.24442"
       y="221.67642">G</tspan></text>
  <path
     style="fill:#cfe2f3;fill-rule:nonzero;stroke:#073763;stroke-width:2;stroke-linecap:butt;stroke-linejoin:round"
     d="m 244.82593,260.88326 0,0 c 0,-8.04509 6.52183,-14.56692 14.56694,-14.56692 l 0,0 c 3.8634,0 7.56856,1.53471 10.30036,4.26655 2.73186,2.73183 4.26653,6.43698 4.26653,10.30037 l 0,0 c 0,8.04509 -6.52179,14.56693 -14.56689,14.56693 l 0,0 c -8.04511,0 -14.56694,-6.52184 -14.56694,-14.56693 z"
     id="path74-7-3" />
  <text
     xml:space="preserve"
     style="font-size:16px;font-style:normal;font-weight:normal;fill:#000000;fill-opacity:1;stroke:none;font-family:Bitstream Vera Sans"
     x="253.24442"
     y="266.3028"
     id="text3029-2"><tspan
       sodipodi:role="line"
       id="tspan3031-2"
       x="253.24442"
       y="266.3028">G</tspan></text>
  <text
     xml:space="preserve"
     style="font-size:16px;font-style:normal;font-weight:normal;fill:#000000;fill-opacity:1;stroke:none;font-family:Bitstream Vera Sans"
     x="429.49023"
     y="254.41995"
     id="text3029-1"><tspan
       sodipodi:role="line"
       id="tspan3031-6"
       x="429.49023"
       y="254.41995">G</tspan></text>
  <text
     xml:space="preserve"
     style="font-size:16px;font-style:normal;font-weight:normal;fill:#000000;fill-opacity:1;stroke:none;font-family:Bitstream Vera Sans"
     x="544.50085"
     y="149.79512"
     id="text3029-5"><tspan
       sodipodi:role="line"
       id="tspan3031-7"
       x="544.50085"
       y="149.79512">G</tspan></text>
  <text
     xml:space="preserve"
     style="font-size:16px;font-style:normal;font-weight:normal;fill:#000000;fill-opacity:1;stroke:none;font-family:Bitstream Vera Sans"
     x="645.35632"
     y="149.7951"
     id="text3029-18"><tspan
       sodipodi:role="line"
       id="tspan3031-9"
       x="645.35632"
       y="149.7951">G</tspan></text>
  <text
     xml:space="preserve"
     style="font-size:16px;font-style:normal;font-weight:normal;fill:#000000;fill-opacity:1;stroke:none;font-family:Bitstream Vera Sans"
     x="545.33289"
     y="254.18936"
     id="text3029-7-2"><tspan
       sodipodi:role="line"
       id="tspan3031-1-7"
       x="545.33289"
       y="254.18936">G</tspan></text>
  <text
     xml:space="preserve"
     style="font-size:16px;font-style:normal;font-weight:normal;fill:#000000;fill-opacity:1;stroke:none;font-family:Bitstream Vera Sans"
     x="645.59851"
     y="254.18939"
     id="text3029-7-54"><tspan
       sodipodi:role="line"
       id="tspan3031-1-3"
       x="645.59851"
       y="254.18939">K</tspan></text>
  <text
     xml:space="preserve"
     style="font-size:16px;font-style:normal;font-weight:normal;fill:#000000;fill-opacity:1;stroke:none;font-family:Bitstream Vera Sans"
     x="494.95782"
     y="328.50394"
     id="text3029-1-1"><tspan
       sodipodi:role="line"
       id="tspan3031-6-2"
       x="494.95782"
       y="328.50394">K</tspan></text>
  <text
     xml:space="preserve"
     style="font-size:16px;font-style:normal;font-weight:normal;fill:#000000;fill-opacity:1;stroke:none;font-family:Bitstream Vera Sans"
     x="545.33289"
     y="105.56026"
     id="text3029-7-2-3"><tspan
       sodipodi:role="line"
       id="tspan3031-1-7-3"
       x="545.33289"
       y="105.56026">K</tspan></text>
  <text
     xml:space="preserve"
     style="font-size:16px;font-style:normal;font-weight:normal;fill:#000000;fill-opacity:1;stroke:none;font-family:Bitstream Vera Sans"
     x="645.59851"
     y="69.582558"
     id="text3029-7-2-1"><tspan
       sodipodi:role="line"
       id="tspan3031-1-7-1"
       x="645.59851"
       y="69.582558">K</tspan></text>
  <text
     xml:space="preserve"
     style="font-size:16px;font-style:normal;font-weight:normal;fill:#000000;fill-opacity:1;stroke:none;font-family:Bitstream Vera Sans"
     x="513.24152"
     y="46.580441"
     id="text3029-5-3"><tspan
       sodipodi:role="line"
       id="tspan3031-7-8"
       x="513.24152"
       y="46.580441">G</tspan></text>
</svg>
